<svg id="svg" version="1.1" xmlns="http://www.w3.org/2000/svg" xmlns:xlink="http://www.w3.org/1999/xlink" width="400" height="289" viewBox="0, 0, 400,289"><g id="svgg"><path id="path0" d="M0.000 144.500 L 0.000 289.000 14.500 289.000 L 29.000 289.000 29.000 144.500 L 29.000 0.000 14.500 0.000 L 0.000 0.000 0.000 144.500 M39.000 107.500 L 39.000 215.000 49.000 215.000 L 59.000 215.000 59.000 107.500 L 59.000 0.000 49.000 0.000 L 39.000 0.000 39.000 107.500 M65.000 107.500 L 65.000 215.000 73.000 215.000 L 81.000 215.000 81.000 107.500 L 81.000 0.000 73.000 0.000 L 65.000 0.000 65.000 107.500 M87.000 107.500 L 87.000 215.000 98.000 215.000 L 109.000 215.000 109.000 107.500 L 109.000 0.000 98.000 0.000 L 87.000 0.000 87.000 107.500 M119.000 107.500 L 119.000 215.000 134.000 215.000 L 149.000 215.000 149.000 107.500 L 149.000 0.000 134.000 0.000 L 119.000 0.000 119.000 107.500 M153.000 107.500 L 153.000 215.000 162.000 215.000 L 171.000 215.000 171.000 107.500 L 171.000 0.000 162.000 0.000 L 153.000 0.000 153.000 107.500 M177.000 107.500 L 177.000 215.000 189.000 215.000 L 201.000 215.000 201.000 107.500 L 201.000 0.000 189.000 0.000 L 177.000 0.000 177.000 107.500 M217.000 107.500 L 217.000 215.000 245.000 215.000 L 273.000 215.000 273.000 107.500 L 273.000 0.000 245.000 0.000 L 217.000 0.000 217.000 107.500 M287.000 107.500 L 287.000 215.000 309.000 215.000 L 331.000 215.000 331.000 107.500 L 331.000 0.000 309.000 0.000 L 287.000 0.000 287.000 107.500 M341.000 107.500 L 341.000 215.000 356.000 215.000 L 371.000 215.000 371.000 107.500 L 371.000 0.000 356.000 0.000 L 341.000 0.000 341.000 107.500 M377.000 144.500 L 377.000 289.000 388.500 289.000 L 400.000 289.000 400.000 144.500 L 400.000 0.000 388.500 0.000 L 377.000 0.000 377.000 144.500 M51.000 242.000 C 51.000 242.550,50.100 243.000,49.000 243.000 C 47.749 243.000,47.000 243.667,47.000 244.779 C 47.000 245.758,46.100 247.207,45.000 248.000 C 43.826 248.847,43.000 250.589,43.000 252.221 C 43.000 253.749,42.550 255.000,42.000 255.000 C 41.400 255.000,41.000 259.000,41.000 265.000 C 41.000 271.000,41.400 275.000,42.000 275.000 C 42.550 275.000,43.000 276.350,43.000 278.000 C 43.000 279.650,43.450 281.000,44.000 281.000 C 44.550 281.000,45.000 281.695,45.000 282.545 C 45.000 289.787,63.078 291.989,69.533 285.533 C 71.664 283.402,73.000 281.091,73.000 279.533 C 73.000 278.140,73.450 277.000,74.000 277.000 C 74.611 277.000,75.000 272.333,75.000 265.000 C 75.000 257.667,74.611 253.000,74.000 253.000 C 73.450 253.000,73.000 252.100,73.000 251.000 C 73.000 249.900,72.550 249.000,72.000 249.000 C 71.450 249.000,71.000 248.305,71.000 247.455 C 71.000 243.364,66.439 241.000,58.545 241.000 C 54.182 241.000,51.000 241.422,51.000 242.000 M91.000 242.000 C 91.000 242.550,90.100 243.000,89.000 243.000 C 87.900 243.000,87.000 243.450,87.000 244.000 C 87.000 244.550,86.293 245.000,85.429 245.000 C 84.564 245.000,83.214 245.643,82.429 246.429 C 80.790 248.067,80.515 251.000,82.000 251.000 C 82.550 251.000,83.000 251.900,83.000 253.000 C 83.000 254.333,83.667 255.000,85.000 255.000 C 86.100 255.000,87.000 254.550,87.000 254.000 C 87.000 253.450,87.900 253.000,89.000 253.000 C 90.926 253.000,91.000 253.667,91.000 271.000 L 91.000 289.000 96.000 289.000 L 101.000 289.000 101.000 265.000 L 101.000 241.000 96.000 241.000 C 93.250 241.000,91.000 241.450,91.000 242.000 M121.000 242.000 C 121.000 242.550,120.293 243.000,119.429 243.000 C 117.199 243.000,115.000 245.483,115.000 248.000 C 115.000 249.179,115.643 250.786,116.429 251.571 C 118.067 253.210,121.000 253.485,121.000 252.000 C 121.000 251.450,121.900 251.000,123.000 251.000 C 124.100 251.000,125.000 250.550,125.000 250.000 C 125.000 248.049,130.128 249.037,132.545 251.455 C 134.963 253.872,135.951 259.000,134.000 259.000 C 133.450 259.000,133.000 259.801,133.000 260.779 C 133.000 261.758,132.100 263.207,131.000 264.000 C 129.900 264.793,129.000 266.036,129.000 266.764 C 129.000 267.491,125.400 271.647,121.000 276.000 C 115.172 281.765,113.000 284.605,113.000 286.457 L 113.000 289.000 129.000 289.000 L 145.000 289.000 145.000 285.000 L 145.000 281.000 138.000 281.000 C 129.806 281.000,129.803 280.994,135.000 276.000 C 137.200 273.886,139.000 271.546,139.000 270.799 C 139.000 270.052,139.900 268.793,141.000 268.000 C 142.100 267.207,143.000 265.758,143.000 264.779 C 143.000 263.801,143.450 263.000,144.000 263.000 C 144.571 263.000,145.000 260.000,145.000 256.000 C 145.000 252.000,144.571 249.000,144.000 249.000 C 143.450 249.000,143.000 248.293,143.000 247.429 C 143.000 245.408,140.592 243.000,138.571 243.000 C 137.707 243.000,137.000 242.550,137.000 242.000 C 137.000 241.417,133.667 241.000,129.000 241.000 C 124.333 241.000,121.000 241.417,121.000 242.000 M155.000 242.000 C 155.000 242.550,154.100 243.000,153.000 243.000 C 150.577 243.000,150.199 247.342,152.429 249.571 C 154.044 251.187,161.000 251.534,161.000 250.000 C 161.000 248.482,165.948 248.805,167.571 250.429 C 171.469 254.326,168.197 259.000,161.571 259.000 L 157.000 259.000 157.000 263.000 C 157.000 266.333,157.333 267.000,159.000 267.000 C 160.100 267.000,161.000 267.450,161.000 268.000 C 161.000 268.550,162.145 269.000,163.545 269.000 C 164.945 269.000,167.195 270.105,168.545 271.455 C 171.030 273.940,171.833 277.000,170.000 277.000 C 169.450 277.000,169.000 277.900,169.000 279.000 C 169.000 280.778,168.333 281.000,163.000 281.000 C 159.667 281.000,157.000 280.556,157.000 280.000 C 157.000 279.450,155.650 279.000,154.000 279.000 C 151.667 279.000,151.000 279.444,151.000 281.000 C 151.000 282.100,150.550 283.000,150.000 283.000 C 148.515 283.000,148.790 285.933,150.429 287.571 C 151.495 288.638,154.671 289.000,162.962 289.000 L 174.067 289.000 177.533 285.533 C 181.033 282.033,182.978 269.000,180.000 269.000 C 179.450 269.000,179.000 268.100,179.000 267.000 C 179.000 265.667,178.333 265.000,177.000 265.000 C 175.900 265.000,175.000 264.550,175.000 264.000 C 175.000 263.450,175.450 263.000,176.000 263.000 C 176.550 263.000,177.000 262.100,177.000 261.000 C 177.000 259.900,177.450 259.000,178.000 259.000 C 178.556 259.000,179.000 256.333,179.000 253.000 C 179.000 249.667,178.556 247.000,178.000 247.000 C 177.450 247.000,177.000 246.100,177.000 245.000 C 177.000 243.667,176.333 243.000,175.000 243.000 C 173.900 243.000,173.000 242.550,173.000 242.000 C 173.000 241.407,169.333 241.000,164.000 241.000 C 158.667 241.000,155.000 241.407,155.000 242.000 M202.250 242.496 C 201.563 243.277,201.000 244.510,201.000 245.237 C 201.000 245.964,200.100 247.207,199.000 248.000 C 197.900 248.793,197.000 250.143,197.000 251.000 C 197.000 251.857,196.100 253.207,195.000 254.000 C 193.900 254.793,193.000 256.062,193.000 256.820 C 193.000 257.577,191.650 259.459,190.000 261.000 C 188.350 262.541,187.000 264.423,187.000 265.180 C 187.000 265.938,186.100 267.207,185.000 268.000 C 183.607 269.004,183.000 270.589,183.000 273.221 L 183.000 277.000 194.000 277.000 L 205.000 277.000 205.000 283.000 L 205.000 289.000 209.000 289.000 L 213.000 289.000 213.000 283.000 L 213.000 277.000 217.000 277.000 L 221.000 277.000 221.000 273.000 L 221.000 269.000 217.000 269.000 L 213.000 269.000 213.000 255.000 L 213.000 241.000 208.250 241.038 C 205.443 241.061,202.989 241.657,202.250 242.496 M227.000 246.000 C 227.000 248.750,226.550 251.000,226.000 251.000 C 225.417 251.000,225.000 254.333,225.000 259.000 L 225.000 267.000 227.917 267.000 C 229.521 267.000,231.096 266.438,231.417 265.750 C 231.883 264.750,232.117 264.750,232.583 265.750 C 232.904 266.438,234.275 267.000,235.629 267.000 C 238.636 267.000,243.000 271.144,243.000 274.000 C 243.000 278.102,238.672 281.000,232.545 281.000 C 229.495 281.000,227.000 280.550,227.000 280.000 C 227.000 279.450,226.100 279.000,225.000 279.000 C 223.667 279.000,223.000 279.667,223.000 281.000 C 223.000 282.100,222.550 283.000,222.000 283.000 C 220.515 283.000,220.790 285.933,222.429 287.571 C 224.137 289.280,245.000 289.676,245.000 288.000 C 245.000 287.450,245.707 287.000,246.571 287.000 C 248.592 287.000,251.000 284.592,251.000 282.571 C 251.000 281.707,251.450 281.000,252.000 281.000 C 252.571 281.000,253.000 278.000,253.000 274.000 C 253.000 270.000,252.571 267.000,252.000 267.000 C 251.450 267.000,251.000 266.305,251.000 265.455 C 251.000 263.025,246.352 259.000,243.545 259.000 C 242.145 259.000,241.000 258.550,241.000 258.000 C 241.000 257.450,239.650 257.000,238.000 257.000 C 235.167 257.000,235.000 256.778,235.000 253.000 L 235.000 249.000 244.000 249.000 L 253.000 249.000 253.000 245.000 L 253.000 241.000 240.000 241.000 L 227.000 241.000 227.000 246.000 M275.000 242.000 C 275.000 242.550,273.863 243.000,272.474 243.000 C 269.649 243.000,261.000 250.895,261.000 253.474 C 261.000 254.313,260.550 255.000,260.000 255.000 C 259.450 255.000,259.000 256.350,259.000 258.000 C 259.000 259.650,258.550 261.000,258.000 261.000 C 257.407 261.000,257.000 264.667,257.000 270.000 C 257.000 275.333,257.407 279.000,258.000 279.000 C 258.550 279.000,259.000 279.690,259.000 280.533 C 259.000 281.377,260.560 283.627,262.467 285.533 C 269.052 292.119,289.000 289.873,289.000 282.545 C 289.000 281.695,289.450 281.000,290.000 281.000 C 290.583 281.000,291.000 277.667,291.000 273.000 C 291.000 268.333,290.583 265.000,290.000 265.000 C 289.450 265.000,289.000 264.293,289.000 263.429 C 289.000 262.564,288.357 261.214,287.571 260.429 C 286.786 259.643,285.436 259.000,284.571 259.000 C 283.707 259.000,283.000 258.550,283.000 258.000 C 283.000 257.444,280.333 257.000,277.000 257.000 C 273.700 257.000,271.000 256.755,271.000 256.455 C 271.000 254.851,276.262 251.000,278.455 251.000 C 279.855 251.000,281.000 250.550,281.000 250.000 C 281.000 249.450,282.350 249.000,284.000 249.000 C 286.833 249.000,287.000 248.778,287.000 245.000 L 287.000 241.000 281.000 241.000 C 277.667 241.000,275.000 241.444,275.000 242.000 M295.000 245.000 L 295.000 249.000 305.000 249.000 C 311.000 249.000,315.000 249.400,315.000 250.000 C 315.000 250.550,314.550 251.000,314.000 251.000 C 313.450 251.000,313.000 251.900,313.000 253.000 C 313.000 254.100,312.550 255.000,312.000 255.000 C 311.450 255.000,311.000 256.350,311.000 258.000 C 311.000 259.650,310.550 261.000,310.000 261.000 C 309.450 261.000,309.000 261.900,309.000 263.000 C 309.000 264.100,308.550 265.000,308.000 265.000 C 307.450 265.000,307.000 265.900,307.000 267.000 C 307.000 268.100,306.550 269.000,306.000 269.000 C 305.450 269.000,305.000 269.900,305.000 271.000 C 305.000 272.100,304.550 273.000,304.000 273.000 C 303.450 273.000,303.000 273.900,303.000 275.000 C 303.000 276.100,302.550 277.000,302.000 277.000 C 301.450 277.000,301.000 277.900,301.000 279.000 C 301.000 280.100,300.550 281.000,300.000 281.000 C 299.450 281.000,299.000 281.900,299.000 283.000 C 299.000 284.100,298.550 285.000,298.000 285.000 C 297.450 285.000,297.000 285.900,297.000 287.000 C 297.000 288.708,297.667 289.000,301.571 289.000 C 306.290 289.000,309.000 287.385,309.000 284.571 C 309.000 283.707,309.450 283.000,310.000 283.000 C 310.550 283.000,311.000 282.100,311.000 281.000 C 311.000 279.900,311.450 279.000,312.000 279.000 C 312.550 279.000,313.000 278.100,313.000 277.000 C 313.000 275.900,313.450 275.000,314.000 275.000 C 314.550 275.000,315.000 274.100,315.000 273.000 C 315.000 271.900,315.450 271.000,316.000 271.000 C 316.550 271.000,317.000 270.100,317.000 269.000 C 317.000 267.900,317.450 267.000,318.000 267.000 C 318.550 267.000,319.000 266.100,319.000 265.000 C 319.000 263.900,319.450 263.000,320.000 263.000 C 320.550 263.000,321.000 262.100,321.000 261.000 C 321.000 259.900,321.450 259.000,322.000 259.000 C 322.550 259.000,323.000 258.100,323.000 257.000 C 323.000 255.900,323.450 255.000,324.000 255.000 C 324.550 255.000,325.000 253.650,325.000 252.000 C 325.000 250.350,325.450 249.000,326.000 249.000 C 326.550 249.000,327.000 247.200,327.000 245.000 L 327.000 241.000 311.000 241.000 L 295.000 241.000 295.000 245.000 M339.000 242.000 C 339.000 242.550,338.293 243.000,337.429 243.000 C 335.408 243.000,333.000 245.408,333.000 247.429 C 333.000 248.293,332.550 249.000,332.000 249.000 C 331.450 249.000,331.000 251.250,331.000 254.000 C 331.000 256.750,331.450 259.000,332.000 259.000 C 332.550 259.000,333.000 259.863,333.000 260.917 C 333.000 261.971,333.563 263.035,334.250 263.282 C 335.098 263.586,334.776 264.375,333.250 265.733 C 332.012 266.834,331.000 268.469,331.000 269.367 C 331.000 270.265,330.550 271.000,330.000 271.000 C 329.450 271.000,329.000 273.250,329.000 276.000 C 329.000 278.750,329.450 281.000,330.000 281.000 C 330.550 281.000,331.000 281.695,331.000 282.545 C 331.000 287.099,335.415 289.000,345.988 289.000 L 356.067 289.000 359.533 285.533 C 364.523 280.543,364.689 271.381,359.871 266.880 L 356.743 263.957 358.871 262.111 C 361.166 260.121,362.146 247.000,360.000 247.000 C 359.450 247.000,359.000 246.100,359.000 245.000 C 359.000 243.667,358.333 243.000,357.000 243.000 C 355.900 243.000,355.000 242.550,355.000 242.000 C 355.000 241.417,351.667 241.000,347.000 241.000 C 342.333 241.000,339.000 241.417,339.000 242.000 M61.571 250.429 C 62.357 251.214,63.000 252.564,63.000 253.429 C 63.000 254.293,63.450 255.000,64.000 255.000 C 64.600 255.000,65.000 259.000,65.000 265.000 C 65.000 271.000,64.600 275.000,64.000 275.000 C 63.450 275.000,63.000 275.707,63.000 276.571 C 63.000 278.801,60.517 281.000,58.000 281.000 C 55.483 281.000,53.000 278.801,53.000 276.571 C 53.000 275.707,52.550 275.000,52.000 275.000 C 51.407 275.000,51.000 271.333,51.000 266.000 C 51.000 260.667,51.407 257.000,52.000 257.000 C 52.550 257.000,53.000 256.309,53.000 255.464 C 53.000 251.374,58.995 247.852,61.571 250.429 M349.571 250.429 C 352.659 253.516,350.374 259.000,346.000 259.000 C 341.728 259.000,339.403 253.729,342.250 250.496 C 343.876 248.649,347.757 248.614,349.571 250.429 M205.000 263.000 L 205.000 269.000 201.000 269.000 C 198.800 269.000,197.000 268.550,197.000 268.000 C 197.000 267.450,197.450 267.000,198.000 267.000 C 198.550 267.000,199.000 266.199,199.000 265.221 C 199.000 264.242,199.900 262.793,201.000 262.000 C 202.100 261.207,203.000 259.758,203.000 258.779 C 203.000 257.801,203.450 257.000,204.000 257.000 C 204.556 257.000,205.000 259.667,205.000 263.000 M278.545 267.455 C 281.379 270.288,281.962 277.180,279.571 279.571 C 275.555 283.588,267.000 279.122,267.000 273.010 C 267.000 266.291,274.009 262.919,278.545 267.455 M350.545 271.455 C 354.282 275.191,353.132 281.000,348.655 281.000 C 347.836 281.000,346.904 281.563,346.583 282.250 C 346.117 283.250,345.883 283.250,345.417 282.250 C 345.096 281.563,343.971 281.000,342.917 281.000 C 341.667 281.000,341.000 280.304,341.000 279.000 C 341.000 277.900,340.550 277.000,340.000 277.000 C 338.243 277.000,338.926 274.007,341.250 271.525 C 344.166 268.411,347.477 268.386,350.545 271.455 " stroke="none" fill="#000000" fill-rule="evenodd"></path></g></svg>