<svg height="512pt" viewBox="0 0 512 512" width="512pt" 
  xmlns="http://www.w3.org/2000/svg">
  <path d="m80 325.558594c-4.425781 0-8-3.574219-8-8v-125.558594c0-4.414062 3.574219-8 8-8s8 3.585938 8 8v125.558594c0 4.425781-3.574219 8-8 8zm0 0"/>
  <path d="m320 325.558594c-4.425781 0-8-3.574219-8-8v-125.558594c0-4.414062 3.574219-8 8-8s8 3.585938 8 8v125.558594c0 4.425781-3.574219 8-8 8zm0 0"/>
  <path d="m272 359.816406c-4.425781 0-8-3.578125-8-8v-159.816406c0-4.414062 3.574219-8 8-8s8 3.585938 8 8v159.816406c0 4.414063-3.574219 8-8 8zm0 0"/>
  <path d="m320 200h-240c-4.425781 0-8-3.585938-8-8s3.574219-8 8-8h240c4.425781 0 8 3.585938 8 8s-3.574219 8-8 8zm0 0"/>
  <path d="m216 168c-4.425781 0-8-3.585938-8-8 0-17.648438-14.351562-32-32-32s-32 14.351562-32 32c0 4.414062-3.574219 8-8 8s-8-3.585938-8-8c0-26.472656 21.527344-48 48-48s48 21.527344 48 48c0 4.414062-3.574219 8-8 8zm0 0"/>
  <path d="m136 224c-4.425781 0-8-3.585938-8-8v-56c0-4.414062 3.574219-8 8-8s8 3.585938 8 8v56c0 4.414062-3.574219 8-8 8zm0 0"/>
  <path d="m216 224c-4.425781 0-8-3.585938-8-8v-56c0-4.414062 3.574219-8 8-8s8 3.585938 8 8v56c0 4.414062-3.574219 8-8 8zm0 0"/>
  <path d="m264 168c-4.425781 0-8-3.585938-8-8 0-17.648438-14.351562-32-32-32s-32 14.351562-32 32c0 4.414062-3.574219 8-8 8s-8-3.585938-8-8c0-26.472656 21.527344-48 48-48s48 21.527344 48 48c0 4.414062-3.574219 8-8 8zm0 0"/>
  <path d="m184 200c-4.425781 0-8-3.585938-8-8v-32c0-4.414062 3.574219-8 8-8s8 3.585938 8 8v32c0 4.414062-3.574219 8-8 8zm0 0"/>
  <path d="m264 200c-4.425781 0-8-3.585938-8-8v-32c0-4.414062 3.574219-8 8-8s8 3.585938 8 8v32c0 4.414062-3.574219 8-8 8zm0 0"/>
  <path style="color: black;" d="m200 375.984375c-47.015625 0-91.207031-18.304687-124.457031-51.542969-33.238281-33.234375-51.542969-77.433594-51.542969-124.441406 0-47.015625 18.304688-91.214844 51.542969-124.449219 33.25-33.246093 77.441406-51.550781 124.457031-51.550781s91.207031 18.3125 124.457031 51.550781c68.613281 68.625 68.613281 180.273438 0 248.890625-33.25 33.238282-77.441406 51.542969-124.457031 51.542969zm0-335.984375c-42.742188 0-82.921875 16.648438-113.144531 46.863281-30.214844 30.207031-46.855469 70.394531-46.855469 113.136719s16.640625 82.921875 46.855469 113.128906c30.214843 30.214844 70.402343 46.855469 113.144531 46.855469s82.921875-16.640625 113.144531-46.855469c62.382813-62.386718 62.382813-163.882812 0-226.265625-30.222656-30.222656-70.402343-46.863281-113.144531-46.863281zm0 0"/>
  <path style="color: black;" d="m200 399.984375c-53.425781 0-103.648438-20.800781-141.425781-58.570313-37.773438-37.765624-58.5664065-88-58.574219-141.421874 0-53.425782 20.808594-103.648438 58.574219-141.417969 37.785156-37.773438 88.011719-58.574219 141.425781-58.574219 53.425781 0 103.648438 20.800781 141.425781 58.574219 77.972657 77.976562 77.972657 204.859375 0 282.832031-37.785156 37.777344-88.011719 58.578125-141.425781 58.578125zm0-383.984375c-49.144531 0-95.351562 19.136719-130.113281 53.886719-34.742188 34.753906-53.886719 80.953125-53.886719 130.105469.007812 49.152343 19.144531 95.359374 53.886719 130.113281 34.746093 34.75 80.960937 53.878906 130.113281 53.878906 49.144531 0 95.351562-19.136719 130.113281-53.878906 71.734375-71.746094 71.734375-188.472657 0-260.210938-34.753906-34.757812-80.960937-53.894531-130.113281-53.894531zm0 0"/>
  <path style="color: black;" d="m368.046875 398.671875c-2.046875 0-4.09375-.785156-5.65625-2.34375l-44.0625-44.070313c-3.128906-3.128906-3.128906-8.1875 0-11.3125 3.128906-3.128906 8.183594-3.128906 11.3125 0l44.0625 44.070313c3.128906 3.128906 3.128906 8.183594 0 11.3125-1.558594 1.558594-3.605469 2.34375-5.65625 2.34375zm0 0"/>
  <path style="color: black;" d="m390.671875 376.046875c-2.046875 0-4.097656-.78125-5.65625-2.34375l-44.113281-44.117187c-3.125-3.128907-3.125-8.1875 0-11.3125 3.128906-3.128907 8.1875-3.128907 11.3125 0l44.113281 44.117187c3.128906 3.128906 3.128906 8.183594 0 11.3125-1.558594 1.5625-3.609375 2.34375-5.65625 2.34375zm0 0"/>
  <path style="color: black;" d="m356.734375 409.984375c-2.046875 0-4.09375-.785156-5.65625-2.34375-3.125-3.128906-3.125-8.183594 0-11.3125l45.25-45.265625c3.128906-3.125 8.183594-3.125 11.3125 0 3.128906 3.128906 3.128906 8.183594 0 11.3125l-45.25 45.265625c-1.558594 1.558594-3.605469 2.34375-5.65625 2.34375zm0 0"/>
  <path style="color: black;" d="m449.375 502.625c-2.046875 0-4.09375-.785156-5.65625-2.34375l-92.640625-92.640625c-3.125-3.128906-3.125-8.183594 0-11.3125 3.128906-3.128906 8.1875-3.128906 11.3125 0l92.640625 92.640625c3.128906 3.128906 3.128906 8.183594 0 11.3125-1.558594 1.558594-3.605469 2.34375-5.65625 2.34375zm0 0"/>
  <path style="color: black;" d="m494.625 457.382812c-2.050781 0-4.097656-.78125-5.65625-2.34375l-92.640625-92.664062c-3.128906-3.128906-3.128906-8.183594 0-11.3125 3.128906-3.125 8.183594-3.125 11.3125 0l92.640625 92.664062c3.125 3.128907 3.125 8.183594 0 11.3125-1.5625 1.5625-3.609375 2.34375-5.65625 2.34375zm0 0"/>
  <path style="color: black;" d="m472.007812 512c-10.6875 0-20.734374-4.167969-28.289062-11.71875-3.125-3.128906-3.125-8.183594 0-11.3125 3.128906-3.128906 8.183594-3.128906 11.3125 0 9.058594 9.0625 24.871094 9.078125 33.929688 0 4.535156-4.527344 7.039062-10.5625 7.039062-16.976562 0-6.40625-2.496094-12.425782-7.023438-16.945313-3.136718-3.125-3.136718-8.183594-.015624-11.3125 3.128906-3.140625 8.199218-3.125 11.3125-.015625 7.558593 7.546875 11.726562 17.585938 11.726562 28.273438s-4.167969 20.734374-11.71875 28.289062c-7.546875 7.550781-17.585938 11.71875-28.273438 11.71875zm0 0"/>
</svg>